<svg width="160" height="84" viewBox="0 0 160 84" fill="none" xmlns="http://www.w3.org/2000/svg">
<g clip-path="url(#clip0_1359_8907)">
<path d="M46.9005 39.025V3.1957C46.9005 1.93347 45.8816 0.914551 44.6193 0.914551H33.3961C32.1338 0.914551 31.1149 1.93347 31.1149 3.1957V6.60222C31.1149 7.43865 30.4306 8.12299 29.5941 8.12299H17.3063C16.4699 8.12299 15.7856 7.43865 15.7856 6.60222V3.1957C15.7856 1.93347 14.7667 0.914551 13.5044 0.914551H2.28115C1.01891 0.914551 0 1.93347 0 3.1957V39.025C0 40.7054 1.36109 42.0665 3.04154 42.0665H43.859C45.5394 42.0665 46.9005 40.7054 46.9005 39.025ZM31.1149 27.8017C31.1149 28.2199 30.7727 28.5621 30.3545 28.5621H16.546C16.1277 28.5621 15.7856 28.2199 15.7856 27.8017V21.9316C15.7856 21.5134 16.1277 21.1712 16.546 21.1712H30.3545C30.7727 21.1712 31.1149 21.5134 31.1149 21.9316V27.8017Z" fill="white"/>
<path d="M67.8865 46.1692H56.1158C54.8536 46.1692 53.8347 47.1881 53.8347 48.4503V50.7011C53.8347 51.1193 53.4925 51.4615 53.0743 51.4615H25.5788C25.1606 51.4615 24.8184 51.1193 24.8184 50.7011V48.4503C24.8184 47.1881 23.7995 46.1692 22.5372 46.1692H10.7665C9.50427 46.1692 8.48535 47.1881 8.48535 48.4503V78.8961C8.48535 80.5766 9.84644 81.9377 11.5269 81.9377H67.1262C68.8066 81.9377 70.1677 80.5766 70.1677 78.8961V48.4503C70.1677 47.1881 69.1488 46.1692 67.8865 46.1692ZM53.8347 68.0074C53.8347 68.8438 53.1503 69.5282 52.3139 69.5282H26.3392C25.5027 69.5282 24.8184 68.8438 24.8184 68.0074V64.753C24.8184 63.9166 25.5027 63.2322 26.3392 63.2322H52.3139C53.1503 63.2322 53.8347 63.9166 53.8347 64.753V68.0074Z" fill="white"/>
<path d="M78.5619 12.5917H70.9276C70.5094 12.5917 70.1672 12.2495 70.1672 11.8313V2.28091C70.1672 1.01867 69.1483 -0.000244141 67.8861 -0.000244141H55.6591C54.3968 -0.000244141 53.3779 1.01867 53.3779 2.28091V40.6955C53.3779 41.9577 54.3968 42.9767 55.6591 42.9767H67.8861C69.1483 42.9767 70.1672 41.9577 70.1672 40.6955V29.1377C70.1672 28.7195 70.5094 28.3773 70.9276 28.3773H78.5619C79.8241 28.3773 80.843 27.3584 80.843 26.0961V14.8729C80.843 13.6106 79.8241 12.5917 78.5619 12.5917Z" fill="white"/>
<path d="M156 -0.000244141H145.293C143.614 -0.000244141 142.252 1.3615 142.252 3.04129V47.7823C142.252 49.4621 143.614 50.8238 145.293 50.8238H156C157.679 50.8238 159.041 49.4621 159.041 47.7823V3.04129C159.041 1.3615 157.679 -0.000244141 156 -0.000244141Z" fill="white"/>
<path d="M158.943 68.8665C152.244 66.7374 141.895 63.1636 137.166 58.7381C136.694 58.2971 136.337 57.7496 136.489 57.1261C136.862 55.5369 137.052 53.9553 137.052 52.3661V48.7771C137.052 47.9407 136.367 47.2563 135.531 47.2563H121.236C120.399 47.2563 119.715 47.9407 119.715 48.7771V52.2749C119.715 56.7459 116.795 60.6695 110.225 64.1369C106.355 66.1519 101.991 67.5966 98.0745 68.4711C97.2381 68.6612 96.7211 69.4976 96.9416 70.334L100.12 82.5914C100.325 83.367 101.093 83.846 101.884 83.7015C108.37 82.5154 115.518 79.6411 121.639 75.8164C124.133 74.2576 126.292 72.5695 128.117 70.7978C128.657 70.2808 129.113 70.6534 129.676 71.1476C136.253 76.9113 147.165 81.7093 154.693 83.7244C155.499 83.9373 156.328 83.4734 156.556 82.6674L159.947 70.7294C160.168 69.9386 159.734 69.1174 158.951 68.8665H158.943Z" fill="white"/>
<path d="M135.044 22.4436C135.044 8.57421 124.003 0.362061 110.317 0.362061C96.6296 0.362061 85.5889 8.57421 85.5889 22.4436C85.5889 36.313 96.6296 44.3427 110.317 44.3427C124.003 44.3427 135.044 36.2218 135.044 22.4436ZM101.101 22.4436C101.101 17.2426 104.568 13.7752 110.317 13.7752C116.065 13.7752 119.532 17.2426 119.532 22.4436C119.532 27.6446 116.065 30.9295 110.317 30.9295C104.568 30.9295 101.101 27.6446 101.101 22.4436Z" fill="white"/>
</g>
<defs>
<clipPath id="clip0_1359_8907">
<rect width="160" height="83.7791" fill="white"/>
</clipPath>
</defs>
</svg>
