<svg width="204" height="68" viewBox="0 0 204 68" fill="none" xmlns="http://www.w3.org/2000/svg">
<path d="M15.4664 2.95323V4.54343C15.4664 5.75501 16.4508 6.73942 17.6624 6.73942H25.992C27.2036 6.73942 28.188 5.75501 28.188 4.54343V2.95323C28.188 1.74165 29.1724 0.757238 30.384 0.757238H39.0923C40.3038 0.757238 41.2883 1.74165 41.2883 2.95323V32.7127C41.2883 33.9243 40.3038 34.9087 39.0923 34.9087H4.5622C3.35062 34.9087 2.36621 33.9243 2.36621 32.7127V2.95323C2.36621 1.74165 3.35062 0.757238 4.5622 0.757238H13.2704C14.482 0.757238 15.4664 1.74165 15.4664 2.95323ZM22.9631 40.5122C22.9631 41.7238 23.9475 42.7082 25.1591 42.7082H44.8473C46.0589 42.7082 47.0433 41.7238 47.0433 40.5122C47.0433 39.3007 48.0277 38.3163 49.2393 38.3163H58.4018C59.6134 38.3163 60.5978 39.3007 60.5978 40.5122V65.804C60.5978 67.0156 59.6134 68 58.4018 68H11.6045C10.3929 68 9.40853 67.0156 9.40853 65.804V40.5122C9.40853 39.3007 10.3929 38.3163 11.6045 38.3163H20.7671C21.9787 38.3163 22.9631 39.3007 22.9631 40.5122ZM28.188 21.5056V19.7639C28.188 18.5523 27.2036 17.5679 25.992 17.5679H17.6624C16.4508 17.5679 15.4664 18.5523 15.4664 19.7639V21.5056C15.4664 22.7171 16.4508 23.7016 17.6624 23.7016H25.992C27.2036 23.7016 28.188 22.7171 28.188 21.5056ZM47.0433 55.5056V54.6726C47.0433 53.461 46.0589 52.4766 44.8473 52.4766H25.1591C23.9475 52.4766 22.9631 53.461 22.9631 54.6726V55.5056C22.9631 56.7171 23.9475 57.7016 25.1591 57.7016H44.8473C46.0589 57.7016 47.0433 56.7171 47.0433 55.5056ZM60.5978 2.19599V8.2539C60.5978 9.46548 61.5822 10.4499 62.7938 10.4499H67.2615C68.4731 10.4499 69.4575 11.4343 69.4575 12.6459V21.3541C69.4575 22.5657 68.4731 23.5501 67.2615 23.5501H62.7938C61.5822 23.5501 60.5978 24.5345 60.5978 25.7461V33.4699C60.5978 34.6815 59.6134 35.6659 58.4018 35.6659H48.8606C47.6491 35.6659 46.6646 34.6815 46.6646 33.4699V2.19599C46.6646 0.98441 47.6491 0 48.8606 0H58.4018C59.6134 0 60.5978 0.98441 60.5978 2.19599Z" fill="white"/>
<path d="M95.1107 49.6129V44.5899C95.1107 44.0977 94.7068 43.6938 94.2146 43.6938H83.1589C80.7673 43.6938 78.8301 41.7566 78.8301 39.365V5.76882C78.8301 3.37721 80.7673 1.43994 83.1589 1.43994H124.567C125.779 1.43994 126.763 2.42435 126.763 3.63593V10.5268C126.763 11.7384 125.779 12.7228 124.567 12.7228H94.9592C93.7477 12.7228 92.7633 13.7072 92.7633 14.9188V15.2974C92.7633 16.509 93.7477 17.4934 94.9592 17.4934H124.113C125.324 17.4934 126.309 18.4778 126.309 19.6894V25.3687C126.309 26.5803 125.324 27.5647 124.113 27.5647H94.9592C93.7477 27.5647 92.7633 28.5491 92.7633 29.7607V30.2907C92.7633 31.5023 93.7477 32.4867 94.9592 32.4867H101.32C107.006 32.4867 117.386 32.4867 125.728 31.6159C126.959 31.4897 128.051 32.411 128.133 33.6478L128.587 40.2169C128.669 41.378 127.83 42.4002 126.681 42.5517C121.709 43.1953 116.231 43.4604 111.12 43.5992C110.634 43.6118 110.255 44.0094 110.255 44.4953V49.6192C110.255 50.1114 110.659 50.5153 111.152 50.5153H132.518C133.73 50.5153 134.714 51.4997 134.714 52.7113V59.9808C134.714 61.1924 133.73 62.1768 132.518 62.1768H72.7722C71.5606 62.1768 70.5762 61.1924 70.5762 59.9808V52.7113C70.5762 51.4997 71.5606 50.5153 72.7722 50.5153H94.2146C94.7068 50.5153 95.1107 50.1114 95.1107 49.6192V49.6129Z" fill="white"/>
<path d="M178.305 4.46771V31.1982C178.305 32.4098 177.321 33.3942 176.109 33.3942H158.617C157.405 33.3942 156.421 34.3786 156.421 35.5902V40.6637C156.421 41.8753 157.405 42.8597 158.617 42.8597H162.554C166.625 42.8597 173.654 42.4621 179.106 41.219C180.381 40.9287 181.631 41.7996 181.782 43.0995L182.634 50.3753C182.76 51.4607 182.072 52.4892 181.006 52.7543C175.093 54.2183 167.634 54.5906 162.031 54.5906H145.069C143.857 54.5906 142.873 53.6062 142.873 52.3946V25.0583C142.873 23.8467 143.857 22.8623 145.069 22.8623H162.561C163.772 22.8623 164.757 21.8779 164.757 20.6663V15.7442C164.757 14.5327 163.772 13.5483 162.561 13.5483H144.16C142.948 13.5483 141.964 12.5638 141.964 11.3523V4.46771C141.964 3.25612 142.948 2.27171 144.16 2.27171H176.115C177.327 2.27171 178.311 3.25612 178.311 4.46771H178.305ZM200.871 2.19599V62.5479C200.871 63.7595 199.886 64.7439 198.675 64.7439H189.133C187.922 64.7439 186.938 63.7595 186.938 62.5479V2.19599C186.938 0.98441 187.922 0 189.133 0H198.675C199.886 0 200.871 0.98441 200.871 2.19599Z" fill="white"/>
</svg>
