<svg width="32" height="32" viewBox="0 0 32 32" fill="none" xmlns="http://www.w3.org/2000/svg">
<path d="M16 4.53369C17.0424 4.53369 17.8775 4.53244 18.5488 4.59326C19.2314 4.65515 19.8236 4.7848 20.3594 5.09424C20.9968 5.46229 21.5265 5.99201 21.8945 6.6294L22.001 6.83252C22.2343 7.3141 22.3413 7.84245 22.3955 8.43994C22.4563 9.11124 22.4551 9.94634 22.4551 10.9888V14.8423C23.0221 14.9562 23.5301 15.1842 23.9385 15.6509H23.9395C24.4327 16.2148 24.5981 16.9204 24.665 17.7095L24.7188 18.4067C24.7312 18.6278 24.7352 18.8359 24.7227 19.0239C24.695 19.4372 24.582 19.8531 24.251 20.2134L24.252 20.2144C23.9109 20.5861 23.4816 20.7259 23.0645 20.7856C22.8814 20.8118 22.6772 20.8238 22.457 20.8306V25.9067C22.4567 26.3483 22.0979 26.7065 21.6562 26.7065C21.2149 26.7062 20.8567 26.3481 20.8564 25.9067V20.8394H11.1436V25.9067C11.1433 26.3483 10.7854 26.7065 10.3438 26.7065C9.9021 26.7065 9.54423 26.3483 9.54395 25.9067V20.8315C9.32267 20.8248 9.11756 20.8119 8.93359 20.7856C8.51626 20.726 8.08552 20.5867 7.74414 20.2144C7.41357 19.8536 7.30295 19.4356 7.27539 19.023C7.25038 18.6472 7.29166 18.1937 7.33301 17.7105C7.4008 16.9223 7.56377 16.215 8.05859 15.6509C8.46744 15.1842 8.97558 14.9563 9.54297 14.8423V10.9888C9.54297 9.94636 9.54173 9.11123 9.60254 8.43994C9.66442 7.75736 9.79602 7.16515 10.1055 6.6294L10.25 6.39502C10.6065 5.86197 11.0813 5.41618 11.6387 5.09424C12.1744 4.78482 12.7667 4.65516 13.4492 4.59326C14.1207 4.5324 14.957 4.53369 16 4.53369ZM10.8291 16.3247C10.4942 16.3342 10.2206 16.3535 9.98828 16.3892C9.56027 16.455 9.38495 16.5632 9.26172 16.7036L9.25977 16.7056C9.10786 16.8791 8.98559 17.1633 8.92676 17.8472C8.88105 18.3814 8.85702 18.6922 8.87207 18.9175C8.88435 19.1004 8.91719 19.1258 8.92383 19.1323C8.9284 19.1373 8.93395 19.1434 8.95508 19.1528C8.98402 19.1656 9.04476 19.1862 9.16016 19.2026C9.41102 19.2384 9.76127 19.2407 10.3418 19.2407H21.6562C22.237 19.2407 22.5873 19.2384 22.8379 19.2026C22.9525 19.1862 23.0121 19.1655 23.041 19.1528C23.0623 19.1434 23.0676 19.1375 23.0723 19.1323H23.0742C23.08 19.1262 23.1135 19.1038 23.126 18.9175C23.141 18.6927 23.1166 18.3823 23.0703 17.8472V17.8462C23.0127 17.1653 22.8889 16.8792 22.7354 16.7036C22.6128 16.5635 22.4381 16.4551 22.0098 16.3892C21.7778 16.3535 21.5043 16.3342 21.1699 16.3247L19.959 16.3149H12.04L10.8291 16.3247ZM16 6.13233C14.9276 6.13233 14.1763 6.13422 13.5938 6.18701C13.0226 6.23881 12.691 6.33474 12.4395 6.47998C12.0455 6.70751 11.7178 7.03531 11.4902 7.4292V7.43018C11.345 7.68179 11.2481 8.01317 11.1963 8.58447C11.1435 9.16679 11.1426 9.91702 11.1426 10.9888V14.7144H20.8555V10.9888C20.8555 9.91699 20.8545 9.16679 20.8018 8.58447C20.75 8.01353 20.6539 7.68173 20.5088 7.43018L20.5078 7.4292C20.2802 7.03527 19.9526 6.7075 19.5586 6.47998C19.307 6.33478 18.9755 6.2388 18.4043 6.18701C17.822 6.13426 17.0718 6.13233 16 6.13233ZM6.66699 7.07862C7.10867 7.07879 7.46582 7.4367 7.46582 7.87842V13.8169C7.46582 14.2586 7.10867 14.6175 6.66699 14.6177C6.22516 14.6177 5.86719 14.2587 5.86719 13.8169V7.87842C5.86719 7.43659 6.22516 7.07862 6.66699 7.07862ZM25.333 7.07862C25.7748 7.07862 26.1328 7.43659 26.1328 7.87842V13.8169C26.1328 14.2587 25.7748 14.6177 25.333 14.6177C24.8913 14.6175 24.5342 14.2586 24.5342 13.8169V7.87842C24.5342 7.4367 24.8913 7.07879 25.333 7.07862Z" fill="black"/>
</svg>
