<svg viewBox="0 0 74 74" fill="none" xmlns="http://www.w3.org/2000/svg">
<ellipse cx="37.955" cy="67.067" rx="23.6386" ry="4.29356" fill="url(#paint0_linear_177_4139)"/>
<path d="M27.3826 61.713V56.7617C28.2666 56.7617 33.8903 57.862 36.5916 58.4122C36.5916 65.0139 37.8808 67.3979 32.1712 67.3979C28.9029 67.3979 22.0842 67.3736 19.6471 66.481C17.8267 65.8142 17.1753 64.2778 17.8053 63.1801C18.984 61.1262 24.6813 61.3463 27.3826 61.713Z" fill="#E9E9E9"/>
<path d="M47.9123 61.713V56.7617C47.0283 56.7617 41.4047 57.862 38.7033 58.4122C38.7033 65.0139 37.4141 67.3979 43.1237 67.3979C46.392 67.3979 53.2108 67.3736 55.6478 66.481C57.4682 65.8142 58.1196 64.2778 57.4896 63.1801C56.3109 61.1262 50.6136 61.3463 47.9123 61.713Z" fill="#E9E9E9"/>
<path d="M59.8694 38.2813C59.8694 52.673 50.5957 58.8945 36.204 58.8945C21.8122 58.8945 11.9922 52.673 11.9922 38.2813C11.9922 31.5506 14.9777 20.1376 20.3827 13.425C26.5349 5.78434 36.204 0.257026 40.7243 8.90461C45.1986 17.4641 59.8694 16.2113 59.8694 38.2813Z" fill="#ECECEC"/>
<ellipse cx="29.8041" cy="29.1074" rx="6.9135" ry="9.83844" transform="rotate(0.730384 29.8041 29.1074)" fill="white"/>
<ellipse cx="31.0488" cy="28.9806" rx="4.35674" ry="6.19998" transform="rotate(0.730384 31.0488 28.9806)" fill="#111820"/>
<ellipse cx="42.4242" cy="29.1074" rx="6.9135" ry="9.83844" transform="rotate(0.730384 42.4242 29.1074)" fill="white"/>
<ellipse cx="43.669" cy="28.9806" rx="4.35674" ry="6.19998" transform="rotate(0.730384 43.669 28.9806)" fill="#111820"/>
<path d="M53.5673 22.7859C54.4589 23.5509 55.8261 23.4551 56.385 22.4217C57.2888 20.7507 57.7036 18.8419 57.5567 16.9183C57.3552 14.2814 56.1145 11.8325 54.1075 10.1104C52.1005 8.38831 49.4916 7.53402 46.8547 7.73547C44.931 7.88243 43.1075 8.58246 41.5931 9.72959C40.6566 10.439 40.7696 11.8048 41.6612 12.5699L47.6143 17.6779L53.5673 22.7859Z" fill="#1E1E1E"/>
<rect x="52.1694" y="5.63965" width="8.77483" height="3.72265" rx="1.86133" transform="rotate(40.6312 52.1694 5.63965)" fill="#1E1E1E"/>
<rect x="19.1162" y="41.3389" width="5.58398" height="12.7634" rx="2.79199" transform="rotate(60.5712 19.1162 41.3389)" fill="#F0F0F0"/>
<rect x="64.0562" y="40.0098" width="5.58398" height="12.7634" rx="2.79199" transform="rotate(60.5712 64.0562 40.0098)" fill="#F0F0F0"/>
<circle cx="22.8887" cy="42.1367" r="7.44531" fill="#FF7575"/>
<path d="M30.3351 41.339C27.6985 35.2494 24.3523 35.4891 21.8262 34.8434C22.5452 34.3924 26.1752 34.6581 27.809 35.888C30.11 37.6201 30.3351 40.0095 30.3351 41.339Z" fill="#C2C4C6"/>
<circle cx="48.686" cy="42.1367" r="7.44531" fill="#FF7575"/>
<path d="M41.2362 41.339C43.8728 35.2494 47.219 35.4891 49.7451 34.8434C49.0261 34.3924 45.3961 34.6581 43.7623 35.888C41.4613 37.6201 41.2362 40.0095 41.2362 41.339Z" fill="#C2C4C6"/>
<defs>
<linearGradient id="paint0_linear_177_4139" x1="37.955" y1="62.7734" x2="37.955" y2="71.3606" gradientUnits="userSpaceOnUse">
<stop stop-color="#D0D0D0"/>
<stop offset="1" stop-color="#626262"/>
</linearGradient>
</defs>
</svg>
