<svg width="24" height="24" viewBox="0 0 24 24" fill="none" xmlns="http://www.w3.org/2000/svg">
<path d="M15.6473 14.9331C16.0246 15.0588 16.4323 14.8549 16.5581 14.4777C16.6838 14.1004 16.4799 13.6927 16.1027 13.5669L15.875 14.25L15.6473 14.9331ZM12.5 13.125H11.78C11.78 13.4349 11.9783 13.71 12.2723 13.8081L12.5 13.125ZM13.22 8.42087C13.22 8.02322 12.8976 7.70087 12.5 7.70087C12.1024 7.70087 11.78 8.02322 11.78 8.42087H12.5H13.22ZM15.875 14.25L16.1027 13.5669L12.7277 12.4419L12.5 13.125L12.2723 13.8081L15.6473 14.9331L15.875 14.25ZM12.5 13.125H13.22V8.42087H12.5H11.78V13.125H12.5ZM21.5 12H20.78C20.78 16.5729 17.0729 20.28 12.5 20.28V21V21.72C17.8682 21.72 22.22 17.3682 22.22 12H21.5ZM12.5 21V20.28C7.92708 20.28 4.22 16.5729 4.22 12H3.5H2.78C2.78 17.3682 7.13179 21.72 12.5 21.72V21ZM3.5 12H4.22C4.22 7.42708 7.92708 3.72 12.5 3.72V3V2.28C7.13179 2.28 2.78 6.63179 2.78 12H3.5ZM12.5 3V3.72C17.0729 3.72 20.78 7.42708 20.78 12H21.5H22.22C22.22 6.63179 17.8682 2.28 12.5 2.28V3Z" fill="#929395"/>
</svg>
