<svg width="33" height="32" viewBox="0 0 33 32" fill="none" xmlns="http://www.w3.org/2000/svg">
<path d="M26.8018 7.20068C27.2434 7.20092 27.6016 7.55881 27.6016 8.00049C27.6016 8.44217 27.2434 8.80006 26.8018 8.80029H25.1895L27.5908 23.2026C27.6632 23.638 27.3688 24.0496 26.9336 24.1226C26.4978 24.1952 26.0854 23.9011 26.0127 23.4653L24.4199 13.9116H8.82227L7.37305 23.4536C7.30669 23.8903 6.8996 24.1907 6.46289 24.1245C6.02639 24.0581 5.72695 23.6509 5.79297 23.2144L7.98145 8.80029H6.35645C5.91462 8.80029 5.55664 8.44232 5.55664 8.00049C5.55664 7.55866 5.91462 7.20068 6.35645 7.20068H26.8018ZM9.06641 12.312H24.1533L23.5684 8.80029H9.59961L9.06641 12.312Z" fill="#242525"/>
</svg>
