<svg width="33" height="32" viewBox="0 0 33 32" fill="none" xmlns="http://www.w3.org/2000/svg">
<path d="M16.542 4C17.6352 4 18.5087 3.99892 19.21 4.0625C19.9221 4.12709 20.5355 4.26294 21.0898 4.58301C21.7516 4.96517 22.3014 5.51504 22.6836 6.17676C23.0039 6.73125 23.1405 7.34519 23.2051 8.05762C23.2686 8.75892 23.2676 9.63243 23.2676 10.7256V14.7939C23.8687 14.9103 24.4041 15.1442 24.832 15.6338L25.0078 15.8594C25.3818 16.3995 25.5199 17.0479 25.5811 17.7686C25.6251 18.2769 25.6687 18.7502 25.6426 19.1406C25.6139 19.5683 25.4985 19.9952 25.1592 20.3643L25.1582 20.3633C24.8091 20.7437 24.3699 20.8884 23.9375 20.9502C23.7373 20.9788 23.5129 20.9922 23.2695 20.999V25.9404C23.2694 26.3821 22.9105 26.7412 22.4688 26.7412C22.0273 26.7409 21.6701 26.3819 21.6699 25.9404V21.0068H11.417V25.9404C11.4168 26.3821 11.0589 26.7412 10.6172 26.7412C10.1756 26.7411 9.81853 26.382 9.81836 25.9404V20.999C9.57292 20.9922 9.34615 20.979 9.14453 20.9502C8.71195 20.8883 8.27123 20.7444 7.92188 20.3633C7.58342 19.9939 7.46898 19.5665 7.44043 19.1396C7.41441 18.7495 7.45656 18.2772 7.5 17.7695L7.53125 17.4648C7.61804 16.7655 7.80356 16.1418 8.25 15.6328C8.67833 15.1439 9.21432 14.9103 9.81543 14.7939V10.7256C9.81543 9.63242 9.81437 8.75892 9.87793 8.05762C9.94251 7.34526 10.0782 6.73121 10.3984 6.17676C10.7807 5.51473 11.3321 4.96525 11.9941 4.58301C12.5485 4.26303 13.1619 4.12706 13.874 4.0625C14.5753 3.99896 15.4489 4 16.542 4ZM11.124 16.2764C10.7719 16.2863 10.4834 16.3061 10.2383 16.3438C9.78381 16.4137 9.59021 16.5309 9.45312 16.6875V16.6885C9.30663 16.8556 9.18962 17.1121 9.12109 17.6553L9.09375 17.9062C9.04601 18.4643 9.02121 18.7926 9.03711 19.0322C9.05055 19.2335 9.08802 19.2676 9.10156 19.2822C9.10522 19.2868 9.13739 19.3338 9.37109 19.3672C9.63736 19.4052 10.0086 19.4072 10.6162 19.4072H22.4678C23.0752 19.4072 23.4451 19.4052 23.7109 19.3672C23.9496 19.3331 23.9777 19.2852 23.9805 19.2822V19.2812C23.994 19.2665 24.0324 19.2351 24.0459 19.0342C24.0619 18.7951 24.0357 18.4656 23.9873 17.9062V17.9053C23.9267 17.1898 23.7968 16.8806 23.6279 16.6875C23.4915 16.5314 23.2985 16.4137 22.8438 16.3438C22.3539 16.2685 21.6926 16.2656 20.6895 16.2656H12.3936L11.124 16.2764ZM16.542 5.59863C15.4195 5.59863 14.6309 5.60078 14.0186 5.65625C13.4172 5.71077 13.0634 5.81258 12.793 5.96875C12.3743 6.21056 12.0269 6.55883 11.7852 6.97754H11.7842C11.6282 7.24784 11.5262 7.60128 11.4717 8.20215C11.4162 8.81445 11.416 9.60301 11.416 10.7256V14.667H21.667V10.7256C21.667 9.603 21.6668 8.81445 21.6113 8.20215C21.5568 7.60115 21.4549 7.24787 21.2988 6.97754C21.057 6.55872 20.7079 6.21057 20.2891 5.96875C20.0188 5.81272 19.6663 5.71075 19.0654 5.65625C18.4531 5.60074 17.6646 5.59863 16.542 5.59863Z" fill="black"/>
</svg>
