<svg width="64" height="64" viewBox="0 0 64 64" fill="none" xmlns="http://www.w3.org/2000/svg">
<path d="M27.3617 5.46784C29.9368 2.97673 34.0234 2.97673 36.5985 5.46784C38.071 6.89236 40.1185 7.55764 42.1471 7.2707C45.6946 6.76893 49.0008 9.17102 49.6199 12.6999C49.9738 14.7179 51.2393 16.4597 53.0491 17.4199C56.214 19.0991 57.4769 22.9858 55.9034 26.2046C55.0037 28.0453 55.0037 30.1981 55.9034 32.0388C57.4769 35.2576 56.214 39.1443 53.0491 40.8235C51.2393 41.7838 49.9738 43.5255 49.6199 45.5435C49.0008 49.0724 45.6946 51.4745 42.1471 50.9727C40.1185 50.6858 38.071 51.351 36.5985 52.7756C34.0234 55.2667 29.9368 55.2667 27.3617 52.7756C25.8892 51.351 23.8417 50.6858 21.8131 50.9727C18.2656 51.4745 14.9594 49.0724 14.3404 45.5435C13.9864 43.5255 12.7209 41.7838 10.9111 40.8235C7.74618 39.1443 6.48333 35.2576 8.05678 32.0388C8.95654 30.1981 8.95654 28.0453 8.05678 26.2046C6.48333 22.9858 7.74618 19.0991 10.9111 17.4199C12.7209 16.4597 13.9864 14.7179 14.3404 12.6999C14.9594 9.17102 18.2656 6.76893 21.8131 7.2707C23.8417 7.55764 25.8892 6.89236 27.3617 5.46784Z" fill="white"/>
<path d="M59.3477 28.1987C61.0741 28.199 62.4903 29.6025 62.3125 31.3198C62.0113 34.2292 61.2895 37.085 60.166 39.7974C58.6428 43.4747 56.4102 46.8168 53.5957 49.6313C50.7812 52.4457 47.4399 54.6785 43.7627 56.2017C43.5634 56.2842 43.4716 56.5121 43.5359 56.718C43.6268 57.0094 43.6768 57.3188 43.6768 57.6401V58.9058C43.6768 60.6324 42.2774 62.0317 40.5508 62.0317H23.7773C22.0507 62.0317 20.6514 60.6324 20.6514 58.9058V57.6401C20.6514 57.3188 20.7005 57.009 20.791 56.7173C20.8548 56.5117 20.7633 56.284 20.5645 56.2017C16.8872 54.6785 13.5459 52.4458 10.7314 49.6313C7.91691 46.8168 5.68435 43.4747 4.16113 39.7974C3.03767 37.085 2.31583 34.2291 2.01465 31.3198C1.83686 29.6024 3.25383 28.1987 4.98047 28.1987L59.3477 28.1987Z" fill="#C2C2C2"/>
</svg>
