<svg viewBox="0 0 24 24" fill="none" xmlns="http://www.w3.org/2000/svg">
<path opacity="0.5" d="M17 3.5C18.1045 3.5001 19 4.3955 19 5.5V8.60156C18.574 8.72109 18.1795 8.9436 17.8535 9.25391L17.8438 9.26172L17.8359 9.27148L13.4893 13.6074L13.4883 13.6084C13.1018 13.9953 12.8262 14.4804 12.6924 15.0107V15.0117L12.3555 16.3564C12.2778 16.6665 12.2817 16.9918 12.3672 17.2998C12.4528 17.6077 12.6166 17.8887 12.8428 18.1143C13.0689 18.3397 13.3497 18.503 13.6572 18.5879C13.9649 18.6727 14.29 18.677 14.5996 18.5996L14.5986 18.5986L15.9463 18.2627H15.9482C16.4788 18.1294 16.9638 17.8556 17.3516 17.4697L17.3525 17.4678L19 15.8232V18C19 19.1045 18.1045 19.9999 17 20H6.2998C5.19524 20 4.2998 19.1046 4.2998 18V10.8496H9.5498C10.7096 10.8496 11.6494 9.9098 11.6494 8.75V3.5H17ZM19 14.3418L16.6113 16.7246L16.5127 16.8164C16.2773 17.021 15.9963 17.1687 15.6924 17.2451L14.3447 17.5801C14.2109 17.6135 14.0705 17.6118 13.9375 17.5752C13.8045 17.5385 13.6827 17.4683 13.585 17.3711C13.4872 17.2737 13.4149 17.1524 13.3779 17.0195C13.341 16.8867 13.3396 16.746 13.373 16.6123L13.7109 15.2666C13.7983 14.9203 13.9779 14.6036 14.2305 14.3506L18.5771 10.0146C18.7032 9.8947 18.8462 9.79672 19 9.72168V14.3418Z" fill="#FF5532"/>
<path d="M18.5274 9.96434L14.1808 14.3004C13.928 14.5535 13.7484 14.87 13.6609 15.2166L13.3237 16.5618C13.2902 16.6956 13.292 16.8358 13.3289 16.9688C13.3658 17.1017 13.4366 17.2229 13.5345 17.3204C13.6323 17.4179 13.7537 17.4885 13.887 17.5252C14.0203 17.562 14.1608 17.5636 14.2949 17.5301L15.6424 17.1943C15.9901 17.107 16.3076 16.9275 16.5614 16.6749L20.9072 12.3388C21.2107 12.0215 21.3777 11.5983 21.3725 11.1597C21.3673 10.7212 21.1904 10.302 20.8796 9.99191C20.5688 9.68178 20.1487 9.50527 19.7091 9.50012C19.2696 9.49496 18.8454 9.66158 18.5274 9.96434Z" fill="#FF5532"/>
<path d="M9.54981 10.85H4.2998L11.6498 3.5V8.75C11.6498 9.9098 10.7096 10.85 9.54981 10.85Z" fill="#FF5532"/>
</svg>
