<svg viewBox="0 0 24 24" fill="none" xmlns="http://www.w3.org/2000/svg">
<path d="M11.9999 3C14.0459 3 16.008 3.81275 17.4548 5.25946C18.9015 6.70617 19.7142 8.66833 19.7142 10.7143C19.7142 13.908 17.2799 17.2543 12.5142 20.8286C12.3658 20.9398 12.1854 21 11.9999 21C11.8145 21 11.634 20.9398 11.4856 20.8286C6.71993 17.2543 4.28564 13.908 4.28564 10.7143C4.28564 8.66833 5.0984 6.70617 6.54511 5.25946C7.99182 3.81275 9.95397 3 11.9999 3ZM11.9999 8.14286C11.3179 8.14286 10.6639 8.41377 10.1817 8.89601C9.69942 9.37825 9.4285 10.0323 9.4285 10.7143C9.4285 11.3963 9.69942 12.0503 10.1817 12.5326C10.6639 13.0148 11.3179 13.2857 11.9999 13.2857C12.6819 13.2857 13.336 13.0148 13.8182 12.5326C14.3004 12.0503 14.5714 11.3963 14.5714 10.7143C14.5714 10.0323 14.3004 9.37825 13.8182 8.89601C13.336 8.41377 12.6819 8.14286 11.9999 8.14286Z" fill="black"/>
</svg>
