<svg viewBox="0 0 24 24" fill="none" xmlns="http://www.w3.org/2000/svg">
<path d="M11 4.2002C11.893 4.2002 12.7775 4.37604 13.6025 4.71777C14.4274 5.0595 15.1772 5.56005 15.8086 6.19141C16.44 6.82277 16.9405 7.57257 17.2822 8.39746C17.624 9.22248 17.7998 10.107 17.7998 11C17.7998 11.893 17.624 12.7775 17.2822 13.6025C17.043 14.1799 16.7241 14.7191 16.3389 15.208L19.5654 18.4346C19.8778 18.747 19.8778 19.253 19.5654 19.5654C19.253 19.8778 18.747 19.8778 18.4346 19.5654L15.208 16.3389C14.7191 16.7241 14.1799 17.043 13.6025 17.2822C12.7775 17.624 11.893 17.7998 11 17.7998C10.107 17.7998 9.22248 17.624 8.39746 17.2822C7.57257 16.9405 6.82277 16.44 6.19141 15.8086C5.56005 15.1772 5.0595 14.4274 4.71777 13.6025C4.37604 12.7775 4.2002 11.893 4.2002 11C4.2002 10.107 4.37604 9.22248 4.71777 8.39746C5.0595 7.57257 5.56005 6.82277 6.19141 6.19141C6.82277 5.56005 7.57257 5.0595 8.39746 4.71777C9.22248 4.37604 10.107 4.2002 11 4.2002ZM11 5.7998C10.3171 5.7998 9.64066 5.93496 9.00977 6.19629C8.37903 6.45761 7.806 6.84048 7.32324 7.32324C6.84048 7.806 6.45761 8.37903 6.19629 9.00977C5.93496 9.64066 5.7998 10.3171 5.7998 11C5.7998 11.6829 5.93496 12.3593 6.19629 12.9902C6.45761 13.621 6.84048 14.194 7.32324 14.6768C7.806 15.1595 8.37903 15.5424 9.00977 15.8037C9.64066 16.065 10.3171 16.2002 11 16.2002C11.6829 16.2002 12.3593 16.065 12.9902 15.8037C13.621 15.5424 14.194 15.1595 14.6768 14.6768C15.1595 14.194 15.5424 13.621 15.8037 12.9902C16.065 12.3593 16.2002 11.6829 16.2002 11C16.2002 10.3171 16.065 9.64066 15.8037 9.00977C15.5424 8.37903 15.1595 7.806 14.6768 7.32324C14.194 6.84048 13.621 6.45761 12.9902 6.19629C12.3593 5.93496 11.6829 5.7998 11 5.7998Z" fill="#101010"/>
</svg>
