<svg width="33" height="32" viewBox="0 0 33 32" fill="none" xmlns="http://www.w3.org/2000/svg">
<path d="M13.1504 4.8162C15.3979 4.4389 17.6958 4.43884 19.9433 4.8162L20.3681 4.88847C23.1631 5.35809 25.1166 7.90003 24.7724 10.6932L24.7558 10.8494L24.7217 11.035C24.6303 11.4323 24.4148 11.7923 24.1045 12.0613C23.7515 12.3672 23.2999 12.5348 22.833 12.533V12.534H20.4131L23.2148 25.8328C23.3057 26.2647 23.0349 26.6903 22.6103 26.783C22.1858 26.8754 21.7669 26.6004 21.6758 26.1687L20.7549 21.7957C20.7451 21.7961 20.7344 21.7996 20.7246 21.7996H12.3369L11.417 26.1687C11.3258 26.6005 10.907 26.8754 10.4824 26.783C10.0579 26.6903 9.78703 26.2647 9.87792 25.8328L12.6797 12.534H10.2607C9.29467 12.5338 8.45961 11.8246 8.33885 10.8543L8.31932 10.699C7.97155 7.90236 9.92769 5.35841 12.7246 4.88847L13.1494 4.8162H13.1504ZM14.289 12.534L12.6738 20.201H20.4189L18.8037 12.534H14.289ZM19.6777 6.39433C17.6056 6.04643 15.4872 6.04646 13.415 6.39433L12.9902 6.46659C11.0093 6.7992 9.66981 8.58439 9.90819 10.5017V10.5027L9.92674 10.656C9.94478 10.8011 10.0773 10.9332 10.2607 10.9334H22.8379C22.918 10.934 22.996 10.9056 23.0566 10.8533C23.1156 10.8022 23.1539 10.731 23.166 10.6541L23.1846 10.5076L23.1855 10.5017C23.4089 8.70534 22.245 7.0222 20.4668 6.54472L20.1025 6.46659L19.6777 6.39433Z" fill="black"/>
</svg>
