<svg width="18" height="18" viewBox="0 0 18 18" fill="none" xmlns="http://www.w3.org/2000/svg">
<path fill-rule="evenodd" clip-rule="evenodd" d="M12.181 15.7481C11.2074 15.7123 8.44803 15.331 5.55819 12.4424C2.66903 9.55318 2.28837 6.79508 2.25185 5.82096C2.19776 4.33645 3.33504 2.89453 4.64878 2.33142C4.80698 2.26312 4.98023 2.23712 5.15151 2.25596C5.3228 2.27481 5.48624 2.33785 5.62581 2.43891C6.70764 3.22713 7.4541 4.4196 8.09508 5.35722C8.23611 5.56322 8.29641 5.81389 8.26449 6.06148C8.23257 6.30906 8.11066 6.53625 7.92199 6.69976L6.60283 7.67929C6.5391 7.7253 6.49424 7.79288 6.47658 7.86947C6.45892 7.94605 6.46967 8.02645 6.50682 8.09571C6.80568 8.63854 7.33713 9.44704 7.94565 10.0554C8.55418 10.6639 9.40139 11.2303 9.9822 11.5629C10.055 11.6038 10.1407 11.6152 10.2217 11.5949C10.3027 11.5745 10.3728 11.5239 10.4176 11.4534L11.2763 10.1467C11.4342 9.93704 11.6671 9.79658 11.9262 9.75475C12.1854 9.71291 12.4506 9.77295 12.6665 9.92227C13.6178 10.5807 14.728 11.3142 15.5408 12.3545C15.6501 12.4951 15.7196 12.6624 15.742 12.839C15.7645 13.0156 15.7391 13.195 15.6686 13.3584C15.1026 14.6786 13.6706 15.8028 12.181 15.7481Z" fill="#AAACAE"/>
</svg>
