<svg width="24" height="24" viewBox="0 0 24 24" fill="none" xmlns="http://www.w3.org/2000/svg">
<path d="M17.4355 5.43451C17.7479 5.12209 18.2539 5.12209 18.5663 5.43451C18.8788 5.74693 18.8788 6.25295 18.5663 6.56537L13.1318 11.9999L18.5663 17.4345C18.8788 17.7469 18.8788 18.2529 18.5663 18.5654C18.2539 18.8778 17.7479 18.8778 17.4355 18.5654L12.0009 13.1308L6.56635 18.5654C6.25393 18.8778 5.74791 18.8778 5.43549 18.5654C5.12307 18.2529 5.12307 17.7469 5.43549 17.4345L10.8701 11.9999L5.43549 6.56537C5.12307 6.25295 5.12307 5.74693 5.43549 5.43451C5.74791 5.12209 6.25393 5.12209 6.56635 5.43451L12.0009 10.8691L17.4355 5.43451Z" fill="#929395"/>
</svg>
