<svg viewBox="0 0 24 24" fill="none" xmlns="http://www.w3.org/2000/svg">
<path d="M17.4345 5.43457C17.7469 5.12215 18.2529 5.12215 18.5654 5.43457C18.8778 5.74699 18.8778 6.25301 18.5654 6.56543L13.1308 12L18.5654 17.4346C18.8778 17.747 18.8778 18.253 18.5654 18.5654C18.2529 18.8779 17.7469 18.8779 17.4345 18.5654L11.9999 13.1309L6.56537 18.5654C6.25295 18.8779 5.74693 18.8779 5.43451 18.5654C5.12209 18.253 5.12209 17.747 5.43451 17.4346L10.8691 12L5.43451 6.56543C5.12209 6.25301 5.12209 5.74699 5.43451 5.43457C5.74693 5.12215 6.25295 5.12215 6.56537 5.43457L11.9999 10.8691L17.4345 5.43457Z" fill="#101010"/>
</svg>
