<svg viewBox="0 0 24 24" fill="none" xmlns="http://www.w3.org/2000/svg">
<g clip-path="url(#clip0_608_12204)">
<path d="M12 0C18.6274 0 24 5.37258 24 12C24 18.6274 18.6274 24 12 24C5.37258 24 0 18.6274 0 12C0 5.37258 5.37258 0 12 0ZM17.2432 6.75781C16.8331 6.34776 16.1679 6.34776 15.7578 6.75781L12 10.5146L8.24316 6.75781C7.83311 6.34776 7.16786 6.34776 6.75781 6.75781C6.34787 7.16787 6.3478 7.83315 6.75781 8.24316L10.5146 12L6.75781 15.7578C6.34787 16.1679 6.3478 16.8331 6.75781 17.2432C7.16786 17.6528 7.83323 17.653 8.24316 17.2432L12 13.4854L15.7578 17.2432C16.1679 17.6528 16.8332 17.653 17.2432 17.2432C17.6531 16.8332 17.6528 16.1679 17.2432 15.7578L13.4854 12L17.2432 8.24316C17.6531 7.83324 17.6528 7.16789 17.2432 6.75781Z" fill="#AAACAE"/>
</g>
<defs>
<clipPath id="clip0_608_12204">
<rect width="24" height="24" fill="white"/>
</clipPath>
</defs>
</svg>
