<svg width="24" height="24" viewBox="0 0 24 24" fill="none" xmlns="http://www.w3.org/2000/svg">
<path d="M7.5 14H10.5V19C10.5 19.5523 10.0523 20 9.5 20H8.5C7.94772 20 7.5 19.5523 7.5 19V14Z" fill="#FF5532"/>
<path opacity="0.5" d="M3.5 9C3.5 8.44772 3.94772 8 4.5 8H12.5V14H4.5C3.94772 14 3.5 13.5523 3.5 13V9Z" fill="#FF5532"/>
<path d="M12.5 7.99969L16.6877 4.64957C17.015 4.38766 17.5 4.62075 17.5 5.04V16.9594C17.5 17.3786 17.015 17.6117 16.6877 17.3498L12.5 13.9997V7.99969Z" fill="#FF5532"/>
<path opacity="0.5" d="M17.5 8C19.1569 8 20.5 9.34315 20.5 11C20.5 12.6569 19.1569 14 17.5 14V8Z" fill="#FF5532"/>
</svg>
