<svg width="24" height="24" viewBox="0 0 24 24" fill="none" xmlns="http://www.w3.org/2000/svg">
<path opacity="0.5" d="M17.001 3.5C18.1055 3.5001 19.001 4.3955 19.001 5.5V8.60156C18.5749 8.72109 18.1805 8.9436 17.8545 9.25391L17.8447 9.26172L17.8369 9.27148L13.4902 13.6074L13.4893 13.6084C13.1027 13.9953 12.8271 14.4804 12.6934 15.0107V15.0117L12.3564 16.3564C12.2787 16.6665 12.2827 16.9918 12.3682 17.2998C12.4537 17.6077 12.6176 17.8887 12.8438 18.1143C13.0699 18.3397 13.3507 18.503 13.6582 18.5879C13.9659 18.6727 14.291 18.677 14.6006 18.5996L14.5996 18.5986L15.9473 18.2627H15.9492C16.4798 18.1294 16.9647 17.8556 17.3525 17.4697L17.3535 17.4678L19.001 15.8232V18C19.001 19.1045 18.1055 19.9999 17.001 20H6.30078C5.19621 20 4.30078 19.1046 4.30078 18V10.8496H9.55078C10.7106 10.8496 11.6504 9.9098 11.6504 8.75V3.5H17.001ZM19.001 14.3418L16.6123 16.7246L16.5137 16.8164C16.2783 17.021 15.9973 17.1687 15.6934 17.2451L14.3457 17.5801C14.2119 17.6135 14.0715 17.6118 13.9385 17.5752C13.8055 17.5385 13.6836 17.4683 13.5859 17.3711C13.4882 17.2737 13.4159 17.1524 13.3789 17.0195C13.342 16.8867 13.3406 16.746 13.374 16.6123L13.7119 15.2666C13.7993 14.9203 13.9788 14.6036 14.2314 14.3506L18.5781 10.0146C18.7041 9.8947 18.8472 9.79672 19.001 9.72168V14.3418Z" fill="#FF5532"/>
<path d="M18.5284 9.96434L14.1818 14.3004C13.929 14.5535 13.7493 14.87 13.6619 15.2166L13.3247 16.5618C13.2911 16.6956 13.2929 16.8358 13.3299 16.9688C13.3668 17.1017 13.4376 17.2229 13.5354 17.3204C13.6332 17.4179 13.7547 17.4885 13.888 17.5252C14.0213 17.562 14.1618 17.5636 14.2959 17.5301L15.6434 17.1943C15.9911 17.107 16.3086 16.9275 16.5624 16.6749L20.9082 12.3388C21.2117 12.0215 21.3786 11.5983 21.3735 11.1597C21.3683 10.7212 21.1914 10.302 20.8806 9.99191C20.5698 9.68178 20.1497 9.50527 19.7101 9.50012C19.2706 9.49496 18.8464 9.66158 18.5284 9.96434Z" fill="#FF5532"/>
<path d="M9.55078 10.85H4.30078L11.6508 3.5V8.75C11.6508 9.9098 10.7106 10.85 9.55078 10.85Z" fill="#FF5532"/>
</svg>
