<svg viewBox="0 0 24 24" fill="none" xmlns="http://www.w3.org/2000/svg">
<path opacity="0.5" d="M12.0898 16.934H6.06308C5.78694 16.934 5.56308 17.1579 5.56308 17.434V18C5.56308 18.2761 5.78694 18.5 6.06308 18.5H12.0898V16.934Z" fill="#FF5532"/>
<path d="M11.9023 16.934H17.9291C18.2052 16.934 18.4291 17.1579 18.4291 17.434V18C18.4291 18.2761 18.2052 18.5 17.9291 18.5H11.9023V16.934Z" fill="#FF5532"/>
<path opacity="0.5" d="M11.9988 16.1578V5H11.9202C11.6581 5 11.4111 5.12225 11.2521 5.33059L7.84542 9.79588L3.77007 8.3965C3.44723 8.28564 3.13395 8.58566 3.23075 8.91299L5.26724 15.7995C5.33006 16.012 5.52518 16.1578 5.74671 16.1578H11.9988Z" fill="#FF5532"/>
<path d="M12.0012 16.1578V5H12.0798C12.3419 5 12.5889 5.12225 12.7479 5.33059L16.1546 9.79588L20.2299 8.3965C20.5528 8.28564 20.866 8.58566 20.7692 8.91299L18.7328 15.7995C18.6699 16.012 18.4748 16.1578 18.2533 16.1578H12.0012Z" fill="#FF5532"/>
</svg>
