<svg width="16" height="17" viewBox="0 0 16 17" fill="none" xmlns="http://www.w3.org/2000/svg">
<circle opacity="0.5" cx="2.52463" cy="6.79318" r="0.520232" fill="#FF5532"/>
<circle cx="13.4841" cy="6.79318" r="0.520232" fill="#FF5532"/>
<circle cx="8.00419" cy="4.4766" r="0.693642" fill="#FF5532"/>
<path opacity="0.5" d="M4.23975 12.3027H7.89506C8.02054 12.3027 8.12226 12.4045 8.12226 12.5299V12.9843C8.12226 13.1098 8.02054 13.2115 7.89506 13.2115H4.23975V12.3027Z" fill="#FF5532"/>
<path d="M8.00488 12.3027H11.6602C11.7857 12.3027 11.8874 12.4045 11.8874 12.5299V12.9843C11.8874 13.1098 11.7857 13.2115 11.6602 13.2115H8.00488V12.3027Z" fill="#FF5532"/>
<path opacity="0.5" d="M8.06361 11.8484V5.37329H7.99097C7.85117 5.37329 7.71915 5.43764 7.63303 5.54776L6.38413 7.14472C5.90988 7.75114 5.10504 7.99301 4.37508 7.74848L3.12769 7.33062C2.95273 7.27202 2.78457 7.43538 2.8381 7.61196L4.12227 11.8484H8.06361Z" fill="#FF5532"/>
<path d="M8.06286 11.8484V5.37329H8.1355C8.27529 5.37329 8.40731 5.43764 8.49343 5.54776L9.74234 7.14472C10.2166 7.75114 11.0214 7.99301 11.7514 7.74848L12.9988 7.33062C13.1737 7.27202 13.3419 7.43538 13.2884 7.61196L12.0042 11.8484H8.06286Z" fill="#FF5532"/>
</svg>
