<svg width="14" height="14" viewBox="0 0 14 14" fill="none" xmlns="http://www.w3.org/2000/svg">
<path opacity="0.5" d="M7.05249 9.87817H3.53688C3.3758 9.87817 3.24521 10.0088 3.24521 10.1698V10.5C3.24521 10.6611 3.3758 10.7917 3.53688 10.7917H7.05249V9.87817Z" fill="#FF5532"/>
<path d="M6.94312 9.87817H10.4587C10.6198 9.87817 10.7504 10.0088 10.7504 10.1698V10.5C10.7504 10.6611 10.6198 10.7917 10.4587 10.7917H6.94312V9.87817Z" fill="#FF5532"/>
<path opacity="0.5" d="M6.99963 9.42532V2.91663H6.95376C6.8009 2.91663 6.6568 2.98794 6.56408 3.10947L4.57682 5.71422L2.19953 4.89792C2.01121 4.83325 1.82846 5.00826 1.88493 5.1992L3.07288 9.21636C3.10953 9.34029 3.22335 9.42532 3.35257 9.42532H6.99963Z" fill="#FF5532"/>
<path d="M7.00061 9.42532V2.91663H7.04648C7.19934 2.91663 7.34345 2.98794 7.43617 3.10947L9.42342 5.71422L11.8007 4.89792C11.989 4.83325 12.1718 5.00826 12.1153 5.1992L10.9274 9.21636C10.8907 9.34029 10.7769 9.42532 10.6477 9.42532H7.00061Z" fill="#FF5532"/>
</svg>
