<svg viewBox="0 0 24 24" fill="none" xmlns="http://www.w3.org/2000/svg">
<path d="M15 15.2998C16.2487 15.2998 17.2968 16.1484 17.6055 17.2998H20C20.3866 17.2998 20.7002 17.6134 20.7002 18C20.7002 18.3866 20.3866 18.7002 20 18.7002H17.6055C17.2968 19.8516 16.2487 20.7002 15 20.7002C13.7513 20.7002 12.7032 19.8516 12.3945 18.7002H4C3.6134 18.7002 3.2998 18.3866 3.2998 18C3.2998 17.6134 3.6134 17.2998 4 17.2998H12.3945C12.7032 16.1484 13.7513 15.2998 15 15.2998ZM15 16.7002C14.282 16.7002 13.7002 17.282 13.7002 18C13.7002 18.718 14.282 19.2998 15 19.2998C15.718 19.2998 16.2998 18.718 16.2998 18C16.2998 17.282 15.718 16.7002 15 16.7002ZM9 9.2998C10.2487 9.2998 11.2968 10.1484 11.6055 11.2998H20C20.3866 11.2998 20.7002 11.6134 20.7002 12C20.7002 12.3866 20.3866 12.7002 20 12.7002H11.6055C11.2968 13.8516 10.2487 14.7002 9 14.7002C7.75127 14.7002 6.70323 13.8516 6.39453 12.7002H4C3.6134 12.7002 3.2998 12.3866 3.2998 12C3.2998 11.6134 3.6134 11.2998 4 11.2998H6.39453C6.70323 10.1484 7.75127 9.2998 9 9.2998ZM9 10.7002C8.28203 10.7002 7.7002 11.282 7.7002 12C7.7002 12.718 8.28203 13.2998 9 13.2998C9.71797 13.2998 10.2998 12.718 10.2998 12C10.2998 11.282 9.71797 10.7002 9 10.7002ZM15 3.2998C16.2487 3.2998 17.2968 4.14842 17.6055 5.2998H20C20.3866 5.2998 20.7002 5.6134 20.7002 6C20.7002 6.3866 20.3866 6.7002 20 6.7002H17.6055C17.2968 7.85158 16.2487 8.7002 15 8.7002C13.7513 8.7002 12.7032 7.85158 12.3945 6.7002H4C3.6134 6.7002 3.2998 6.3866 3.2998 6C3.2998 5.6134 3.6134 5.2998 4 5.2998H12.3945C12.7032 4.14842 13.7513 3.2998 15 3.2998ZM15 4.7002C14.282 4.7002 13.7002 5.28203 13.7002 6C13.7002 6.71797 14.282 7.2998 15 7.2998C15.718 7.2998 16.2998 6.71797 16.2998 6C16.2998 5.28203 15.718 4.7002 15 4.7002Z" fill="black"/>
</svg>
