<svg width="32" height="32" viewBox="0 0 32 32" fill="none" xmlns="http://www.w3.org/2000/svg">
<path d="M16.0098 5.86719C19.097 5.8672 21.9236 6.24025 24.0039 6.86426C25.0389 7.17478 25.9358 7.56179 26.5908 8.02637C27.2248 8.47621 27.79 9.11852 27.79 9.96094C27.79 10.8033 27.2249 11.4457 26.5908 11.8955C25.9359 12.3601 25.0389 12.7451 24.0039 13.0557C22.1043 13.6255 19.5828 13.9863 16.8086 14.0449V21.3145C18.0519 21.551 18.8429 22.3203 19.2764 23.0479L19.374 23.2217L19.377 23.2295C19.553 23.5728 19.599 23.9681 19.5068 24.3428C19.4145 24.7175 19.1904 25.0472 18.875 25.2695C18.8694 25.2735 18.8631 25.2775 18.8574 25.2812C18.0144 25.8427 17.0225 26.1379 16.0098 26.1318V26.1328L16.0059 26.1318L16.0029 26.1328V26.1318C14.9394 26.1306 13.946 25.8168 13.1523 25.2744L13.1436 25.2686C12.8279 25.0462 12.6031 24.7157 12.5107 24.3408C12.4187 23.9663 12.4647 23.5707 12.6406 23.2275L12.6465 23.2188C13.0531 22.4494 13.8669 21.5717 15.209 21.3154V14.0449C12.4355 13.9862 9.91469 13.6254 8.01562 13.0557C6.98077 12.7452 6.0846 12.36 5.42969 11.8955C4.7955 11.4457 4.23055 10.8035 4.23047 9.96094C4.23047 9.11837 4.79552 8.47622 5.42969 8.02637C6.08466 7.56183 6.98066 7.17477 8.01562 6.86426C10.0959 6.24022 12.9225 5.86721 16.0098 5.86719ZM16.0088 22.8398C16.0049 22.8398 16.001 22.8389 15.9971 22.8389C14.9181 22.8434 14.3431 23.4356 14.0645 23.958C14.5857 24.3118 15.2612 24.5322 16.0098 24.5322H16.0146C16.7037 24.5372 17.3777 24.3367 17.9531 23.958C17.675 23.4341 17.101 22.8429 16.0205 22.8389C16.0166 22.8389 16.0127 22.8398 16.0088 22.8398ZM16.0098 7.46582C13.0332 7.46585 10.3682 7.82938 8.47461 8.39746C7.52315 8.68296 6.81158 9.00757 6.35547 9.33105C5.87846 9.66939 5.8291 9.89397 5.8291 9.96094C5.82919 10.0281 5.87925 10.252 6.35547 10.5898C6.81155 10.9133 7.52332 11.238 8.47461 11.5234C10.3682 12.0915 13.0332 12.4541 16.0098 12.4541C18.9863 12.4541 21.6503 12.0915 23.5439 11.5234C24.4959 11.2379 25.2088 10.9134 25.665 10.5898C26.1411 10.252 26.1894 10.0281 26.1895 9.96094C26.1895 9.89398 26.1418 9.66927 25.665 9.33105C25.2088 9.00747 24.4958 8.68303 23.5439 8.39746C21.6503 7.82946 18.9861 7.46583 16.0098 7.46582Z" fill="#242525"/>
</svg>
