<svg width="24" height="24" viewBox="0 0 24 24" fill="none" xmlns="http://www.w3.org/2000/svg">
<path d="M21.8349 12.1818C21.8349 11.3562 21.7679 10.7537 21.6229 10.1289H12.1953V13.8553H17.7291C17.6176 14.7813 17.0151 16.1759 15.6762 17.1131L15.6575 17.2378L18.6383 19.547L18.8448 19.5676C20.7415 17.816 21.8349 15.2387 21.8349 12.1818Z" fill="#4285F4"/>
<path d="M12.1958 22.0001C14.9069 22.0001 17.1828 21.1075 18.8453 19.5679L15.6767 17.1133C14.8288 17.7046 13.6908 18.1174 12.1958 18.1174C9.54044 18.1174 7.28676 16.3659 6.48339 13.9448L6.36563 13.9548L3.26612 16.3536L3.22559 16.4662C4.87679 19.7463 8.2685 22.0001 12.1958 22.0001Z" fill="#34A853"/>
<path d="M6.48216 13.9448C6.27018 13.32 6.1475 12.6506 6.1475 11.9589C6.1475 11.2671 6.27018 10.5977 6.471 9.97292L6.46539 9.83986L3.32704 7.40259L3.22436 7.45143C2.54382 8.81259 2.15332 10.3411 2.15332 11.9589C2.15332 13.5766 2.54382 15.1051 3.22436 16.4662L6.48216 13.9448Z" fill="#FBBC05"/>
<path d="M12.1958 5.80006C14.0813 5.80006 15.3531 6.61451 16.0783 7.29513L18.9122 4.5282C17.1718 2.91045 14.9069 1.91748 12.1958 1.91748C8.2685 1.91748 4.87679 4.17116 3.22559 7.45126L6.47223 9.97276C7.28676 7.55171 9.54044 5.80006 12.1958 5.80006Z" fill="#EB4335"/>
</svg>
