<svg viewBox="0 0 24 24" fill="none" xmlns="http://www.w3.org/2000/svg">
<path d="M3.2002 18.7886V9.73714C3.2002 9.41867 3.2783 9.11695 3.4345 8.832C3.5907 8.54705 3.80593 8.31238 4.0802 8.128L10.6802 3.60229C11.0652 3.3341 11.5052 3.2 12.0002 3.2C12.4952 3.2 12.9352 3.3341 13.3202 3.60229L19.9202 8.128C20.1952 8.31238 20.4108 8.54705 20.567 8.832C20.7232 9.11695 20.8009 9.41867 20.8002 9.73714V18.7886C20.8002 19.3417 20.5846 19.8154 20.1534 20.2096C19.7222 20.6039 19.2045 20.8007 18.6002 20.8H15.3002C14.9885 20.8 14.7275 20.7034 14.517 20.5104C14.3065 20.3173 14.2009 20.0786 14.2002 19.7943V14.7657C14.2002 14.4808 14.0946 14.2421 13.8834 14.0496C13.6722 13.8572 13.4111 13.7607 13.1002 13.76H10.9002C10.5885 13.76 10.3275 13.8565 10.117 14.0496C9.90653 14.2427 9.80093 14.4814 9.80019 14.7657V19.7943C9.80019 20.0792 9.69459 20.3183 9.48339 20.5114C9.27219 20.7045 9.01113 20.8007 8.70019 20.8H5.40019C4.79519 20.8 4.27746 20.6032 3.84699 20.2096C3.41653 19.8161 3.20093 19.3424 3.2002 18.7886Z" fill="#101010"/>
</svg>
