<svg width="18" height="18" viewBox="0 0 18 18" fill="none" xmlns="http://www.w3.org/2000/svg">
<path d="M9.00007 2.25C10.5345 2.25 12.0062 2.85956 13.0912 3.9446C14.1762 5.02963 14.7858 6.50125 14.7858 8.03571C14.7858 10.431 12.9601 12.9407 9.38578 15.6214C9.27451 15.7049 9.13916 15.75 9.00007 15.75C8.86097 15.75 8.72563 15.7049 8.61436 15.6214C5.04007 12.9407 3.21436 10.431 3.21436 8.03571C3.21436 6.50125 3.82392 5.02963 4.90895 3.9446C5.99398 2.85956 7.4656 2.25 9.00007 2.25ZM9.00007 6.10714C8.48858 6.10714 7.99804 6.31033 7.63636 6.67201C7.27469 7.03369 7.0715 7.52423 7.0715 8.03571C7.0715 8.5472 7.27469 9.03774 7.63636 9.39942C7.99804 9.7611 8.48858 9.96429 9.00007 9.96429C9.51156 9.96429 10.0021 9.7611 10.3638 9.39942C10.7255 9.03774 10.9286 8.5472 10.9286 8.03571C10.9286 7.52423 10.7255 7.03369 10.3638 6.67201C10.0021 6.31033 9.51156 6.10714 9.00007 6.10714Z" fill="#AAACAE"/>
</svg>
