<svg width="52" height="64" viewBox="0 0 52 64" fill="none" xmlns="http://www.w3.org/2000/svg">
<path d="M26 4C38.1503 4 48 14.043 48 26.4316C48 31.2784 46.4922 35.7656 43.929 39.4329C38.9267 46.5898 31.0538 51.8091 26.8779 59.4775C26.499 60.1729 25.501 60.1729 25.1221 59.4775C20.9455 51.809 13.0722 46.5895 8.07023 39.432C5.50743 35.7648 4 31.2779 4 26.4316C4 14.043 13.8497 4 26 4Z" fill="#FF5532" stroke="white" stroke-width="1.4"/>
<rect x="10" y="10" width="32" height="32" rx="16" fill="white"/>
<path opacity="0.5" d="M26.0973 31.3451H19.5683C19.2691 31.3451 19.0266 31.5876 19.0266 31.8868V32.4999C19.0266 32.7991 19.2691 33.0416 19.5683 33.0416H26.0973V31.3451Z" fill="#FF5532"/>
<path d="M25.8942 31.3451H32.4232C32.7223 31.3451 32.9648 31.5876 32.9648 31.8868V32.4999C32.9648 32.7991 32.7223 33.0416 32.4232 33.0416H25.8942V31.3451Z" fill="#FF5532"/>
<path opacity="0.5" d="M25.9989 30.5042V18.4166H25.9137C25.6298 18.4166 25.3622 18.5491 25.19 18.7748L21.4994 23.6122L17.0844 22.0962C16.7347 21.9761 16.3953 22.3011 16.5002 22.6557L18.7064 30.1161C18.7744 30.3463 18.9858 30.5042 19.2258 30.5042H25.9989Z" fill="#FF5532"/>
<path d="M26.001 30.5042V18.4166H26.0861C26.37 18.4166 26.6377 18.5491 26.8098 18.7748L30.5005 23.6122L34.9154 22.0962C35.2652 21.9761 35.6046 22.3011 35.4997 22.6557L33.2935 30.1161C33.2254 30.3463 33.0141 30.5042 32.7741 30.5042H26.001Z" fill="#FF5532"/>
</svg>
