<svg viewBox="0 0 24 24" fill="none" xmlns="http://www.w3.org/2000/svg">
<path opacity="0.5" d="M3.1958 8.502V16.4514C3.1958 17.4715 3.1958 17.982 3.47258 18.3664C3.74937 18.7508 4.23349 18.9121 5.20174 19.2349L6.34114 19.6144C7.67811 20.0604 8.3461 20.2833 9.01997 20.1924L9.06398 20.1865V6.49411C8.9538 6.51052 8.84278 6.52064 8.73145 6.52443C8.20331 6.54301 7.68104 6.36794 6.63749 6.02074C5.2702 5.56498 4.58656 5.3371 4.06625 5.56889C3.88186 5.65093 3.71639 5.77012 3.58017 5.91903C3.1958 6.34056 3.1958 7.06039 3.1958 8.502ZM20.8003 14.9374V6.98899C20.8003 5.96891 20.8003 5.45838 20.5235 5.07401C20.2468 4.68964 19.7626 4.52827 18.7944 4.20552L17.655 3.82604C16.318 3.38006 15.65 3.15707 14.9762 3.24803L14.9322 3.25292V16.9453C15.043 16.929 15.1538 16.9189 15.2647 16.915C15.7928 16.8964 16.3151 17.0715 17.3586 17.4187C18.7259 17.8745 19.4096 18.1023 19.9299 17.8705C20.1143 17.7885 20.2797 17.6693 20.416 17.5204C20.8003 17.0989 20.8003 16.3791 20.8003 14.9374Z" fill="#101010"/>
<path d="M9.30554 6.44154C9.22534 6.45914 9.14482 6.47447 9.06396 6.48751V20.1799C9.71924 20.0782 10.3051 19.688 11.4523 18.9231L12.8039 18.0214C13.7194 17.4111 14.1771 17.106 14.6915 16.9847C14.7698 16.9651 14.85 16.9498 14.9321 16.9387V3.24632C14.2769 3.34705 13.691 3.73827 12.5438 4.50211L11.1922 5.40385C10.2767 6.01414 9.819 6.31929 9.30456 6.44056" fill="#101010"/>
</svg>
