<svg width="24" height="24" viewBox="0 0 24 24" fill="none" xmlns="http://www.w3.org/2000/svg">
<path opacity="0.5" d="M3 8.70988V16.8379C3 17.8809 3 18.4029 3.283 18.7959C3.566 19.1889 4.061 19.3539 5.051 19.6839L6.216 20.0719C7.583 20.5279 8.266 20.7559 8.955 20.6629L9 20.6569V6.65688C8.88735 6.67366 8.77383 6.68401 8.66 6.68788C8.12 6.70688 7.586 6.52788 6.519 6.17288C5.121 5.70688 4.422 5.47388 3.89 5.71088C3.70147 5.79476 3.53228 5.91664 3.393 6.06888C3 6.49988 3 7.23588 3 8.70988ZM21 15.2899V7.16288C21 6.11988 21 5.59788 20.717 5.20488C20.434 4.81188 19.939 4.64688 18.949 4.31688L17.784 3.92888C16.417 3.47288 15.734 3.24488 15.045 3.33788L15 3.34288V17.3429C15.1133 17.3262 15.2267 17.3159 15.34 17.3119C15.88 17.2929 16.414 17.4719 17.481 17.8269C18.879 18.2929 19.578 18.5259 20.11 18.2889C20.2985 18.205 20.4677 18.0831 20.607 17.9309C21 17.4999 21 16.7639 21 15.2899Z" fill="white"/>
<path d="M9.247 6.61002C9.165 6.62802 9.08267 6.64368 9 6.65702V20.657C9.67 20.553 10.269 20.154 11.442 19.372L12.824 18.45C13.76 17.826 14.228 17.514 14.754 17.39C14.834 17.37 14.916 17.3544 15 17.343V3.34302C14.33 3.44602 13.731 3.84602 12.558 4.62702L11.176 5.54902C10.24 6.17302 9.772 6.48502 9.246 6.60902" fill="white"/>
</svg>
