<svg viewBox="0 0 24 24" fill="none" xmlns="http://www.w3.org/2000/svg">
<path d="M5.2998 12C5.2998 8.29969 8.29969 5.2998 12 5.2998C12.9523 5.2998 13.8604 5.49887 14.6826 5.8584C15.5706 6.24674 16.3575 6.82193 16.9941 7.5332C17.2517 7.82118 17.2272 8.26368 16.9395 8.52148C16.6514 8.77931 16.208 8.75487 15.9502 8.4668C15.4456 7.90308 14.8226 7.44838 14.1211 7.1416C13.4725 6.85797 12.7556 6.7002 12 6.7002C9.07289 6.7002 6.7002 9.07289 6.7002 12C6.7002 14.9271 9.07289 17.2998 12 17.2998C14.9271 17.2998 17.2998 14.9271 17.2998 12C17.2998 11.6134 17.6134 11.2998 18 11.2998C18.3866 11.2998 18.7002 11.6134 18.7002 12C18.7002 15.7003 15.7003 18.7002 12 18.7002C8.29969 18.7002 5.2998 15.7003 5.2998 12Z" fill="black"/>
<path d="M16.3187 4.32366C16.6921 4.2236 17.0762 4.44535 17.1763 4.81877L18.0913 8.23384C18.1914 8.60726 17.9696 8.99135 17.5962 9.09141L14.1811 10.0065C13.8077 10.1065 13.4236 9.88478 13.3236 9.51135C13.2235 9.13793 13.4453 8.75384 13.8187 8.65378L16.5574 7.91995L15.8236 5.18122C15.7235 4.8078 15.9453 4.42372 16.3187 4.32366Z" fill="black"/>
</svg>
