<svg width="32" height="32" viewBox="0 0 32 32" fill="none" xmlns="http://www.w3.org/2000/svg">
<path d="M14.667 5.60059C15.8576 5.60059 17.037 5.83505 18.137 6.29069C19.2369 6.74633 20.2366 7.41372 21.0785 8.25553C21.9203 9.09735 22.5877 10.0971 23.0433 11.1969C23.4989 12.297 23.7334 13.4763 23.7334 14.667C23.7334 15.8576 23.4989 17.037 23.0433 18.137C22.7244 18.9069 22.2991 19.6257 21.7855 20.2777L26.0876 24.5798C26.5041 24.9963 26.5041 25.671 26.0876 26.0876C25.671 26.5041 24.9963 26.5041 24.5798 26.0876L20.2777 21.7855C19.6257 22.2991 18.9069 22.7244 18.137 23.0433C17.037 23.4989 15.8576 23.7334 14.667 23.7334C13.4763 23.7334 12.297 23.4989 11.1969 23.0433C10.0971 22.5877 9.09735 21.9203 8.25553 21.0785C7.41372 20.2366 6.74633 19.2369 6.29069 18.137C5.83505 17.037 5.60059 15.8576 5.60059 14.667C5.60059 13.4763 5.83505 12.297 6.29069 11.1969C6.74633 10.0971 7.41372 9.09735 8.25553 8.25553C9.09735 7.41372 10.0971 6.74633 11.1969 6.29069C12.297 5.83505 13.4763 5.60059 14.667 5.60059ZM14.667 7.7334C13.7565 7.7334 12.8545 7.91361 12.0133 8.26204C11.1724 8.61047 10.4083 9.12097 9.76465 9.76465C9.12097 10.4083 8.61047 11.1724 8.26204 12.0133C7.91361 12.8545 7.7334 13.7565 7.7334 14.667C7.7334 15.5775 7.91361 16.4794 8.26204 17.3206C8.61047 18.1616 9.12097 18.9257 9.76465 19.5693C10.4083 20.213 11.1724 20.7235 12.0133 21.0719C12.8545 21.4204 13.7565 21.6006 14.667 21.6006C15.5775 21.6006 16.4794 21.4204 17.3206 21.0719C18.1616 20.7235 18.9257 20.213 19.5693 19.5693C20.213 18.9257 20.7235 18.1616 21.0719 17.3206C21.4204 16.4794 21.6006 15.5775 21.6006 14.667C21.6006 13.7565 21.4204 12.8545 21.0719 12.0133C20.7235 11.1724 20.213 10.4083 19.5693 9.76465C18.9257 9.12097 18.1616 8.61047 17.3206 8.26204C16.4794 7.91361 15.5775 7.7334 14.667 7.7334Z" fill="#101010"/>
</svg>
