<svg viewBox="0 0 24 24" fill="none" xmlns="http://www.w3.org/2000/svg">
<path d="M17.0645 3.12904C17.8558 2.66743 18.9002 3.22992 18.9004 4.19251V6.66419C20.6922 6.99379 22.0508 8.56339 22.0508 10.4503C22.0506 12.3371 20.6918 13.9049 18.9004 14.2345V16.7072C18.9004 17.7342 17.7122 18.3053 16.9102 17.6642L12.7041 14.2999H11.5498V18.8497C11.5498 19.8161 10.7661 20.5995 9.7998 20.5997H8.75C7.78359 20.5996 7 19.8162 7 18.8497V14.2999H4.5498C3.58339 14.2998 2.7998 13.5164 2.7998 12.5499V8.34974C2.79994 7.38342 3.58348 6.59984 4.5498 6.59974H12.7041L16.9102 3.23548L17.0645 3.12904ZM8.40039 18.8497C8.40039 19.043 8.55679 19.1992 8.75 19.1993H9.7998C9.99288 19.1991 10.1504 19.0429 10.1504 18.8497V14.2999H8.40039V18.8497ZM13.6504 7.63587V13.2628L17.5 16.3429V4.55482L13.6504 7.63587ZM4.5498 8.00013C4.35668 8.00024 4.20034 8.15662 4.2002 8.34974V12.5499C4.2002 12.7432 4.3566 12.8994 4.5498 12.8995H12.25V8.00013H4.5498ZM18.9004 12.796C19.9118 12.4945 20.6502 11.5594 20.6504 10.4503L20.6377 10.1993C20.5361 9.20134 19.8348 8.38122 18.9004 8.10267V12.796Z" fill="black"/>
</svg>
