<svg width="20" height="20" viewBox="0 0 20 20" fill="none" xmlns="http://www.w3.org/2000/svg">
<path d="M13.75 7.50903C14.2473 7.50903 14.7242 7.70658 15.0758 8.05821C15.4275 8.40984 15.625 8.88675 15.625 9.38403C15.625 9.88131 15.4275 10.3582 15.0758 10.7099C14.7242 11.0615 14.2473 11.259 13.75 11.259" stroke="white" stroke-linecap="round" stroke-linejoin="round"/>
<path d="M8.75 7.50903V14.384C8.75 14.5498 8.68415 14.7088 8.56694 14.826C8.44973 14.9432 8.29076 15.009 8.125 15.009H7.5C7.33424 15.009 7.17527 14.9432 7.05806 14.826C6.94085 14.7088 6.875 14.5498 6.875 14.384V11.259" stroke="white" stroke-linecap="round" stroke-linejoin="round"/>
<path d="M10 7.50325L12.8275 5.13972C12.9097 5.07108 13.0096 5.02735 13.1157 5.01365C13.2217 4.99996 13.3295 5.01686 13.4263 5.06239C13.5231 5.10792 13.605 5.18019 13.6623 5.27072C13.7196 5.36125 13.7501 5.4663 13.75 5.57356V13.1945C13.7501 13.3018 13.7196 13.4068 13.6623 13.4973C13.605 13.5879 13.5231 13.6601 13.4263 13.7057C13.3295 13.7512 13.2217 13.7681 13.1157 13.7544C13.0096 13.7407 12.9097 13.697 12.8275 13.6283L10 11.2648H5C4.83424 11.2648 4.67527 11.1988 4.55806 11.0812C4.44085 10.9636 4.375 10.8042 4.375 10.6379V8.13018C4.375 7.9639 4.44085 7.80444 4.55806 7.68687C4.67527 7.5693 4.83424 7.50325 5 7.50325H10Z" stroke="white" stroke-linecap="round" stroke-linejoin="round"/>
</svg>
