<svg viewBox="0 0 24 24" fill="none" xmlns="http://www.w3.org/2000/svg">
<path d="M7.5 14H10.5V19C10.5 19.5523 10.0523 20 9.5 20H8.5C7.94772 20 7.5 19.5523 7.5 19V14Z" fill="#FF5532"/>
<path opacity="0.5" d="M3.5 9C3.5 8.44772 3.94772 8 4.5 8H12.5V14H4.5C3.94772 14 3.5 13.5523 3.5 13V9Z" fill="#FF5532"/>
<path d="M12.5 8L16.6877 4.64988C17.015 4.38797 17.5 4.62106 17.5 5.04031V16.9597C17.5 17.3789 17.015 17.612 16.6877 17.3501L12.5 14V8Z" fill="#FF5532"/>
<path opacity="0.5" d="M17.5 8C19.1569 8 20.5 9.34315 20.5 11C20.5 12.6569 19.1569 14 17.5 14V8Z" fill="#FF5532"/>
</svg>
