<svg width="24" height="24" viewBox="0 0 24 24" fill="none" xmlns="http://www.w3.org/2000/svg">
<path d="M18.2998 12C18.2998 8.52061 15.4794 5.7002 12 5.7002C8.52061 5.7002 5.7002 8.52061 5.7002 12C5.7002 15.4794 8.52061 18.2998 12 18.2998C15.4794 18.2998 18.2998 15.4794 18.2998 12ZM19.7002 12C19.7002 16.2526 16.2526 19.7002 12 19.7002C7.74741 19.7002 4.2998 16.2526 4.2998 12C4.2998 7.74741 7.74741 4.2998 12 4.2998C16.2526 4.2998 19.7002 7.74741 19.7002 12Z" fill="black"/>
<path d="M14.2998 12C14.2998 10.7297 13.2703 9.7002 12 9.7002C10.7297 9.7002 9.7002 10.7297 9.7002 12C9.7002 13.2703 10.7297 14.2998 12 14.2998C13.2703 14.2998 14.2998 13.2703 14.2998 12ZM15.7002 12C15.7002 14.0435 14.0435 15.7002 12 15.7002C9.95655 15.7002 8.2998 14.0435 8.2998 12C8.2998 9.95655 9.95655 8.2998 12 8.2998C14.0435 8.2998 15.7002 9.95655 15.7002 12Z" fill="black"/>
<path d="M11.2998 5V3C11.2998 2.6134 11.6134 2.2998 12 2.2998C12.3866 2.2998 12.7002 2.6134 12.7002 3V5C12.7002 5.3866 12.3866 5.7002 12 5.7002C11.6134 5.7002 11.2998 5.3866 11.2998 5Z" fill="black"/>
<path d="M11.2998 21V19C11.2998 18.6134 11.6134 18.2998 12 18.2998C12.3866 18.2998 12.7002 18.6134 12.7002 19V21C12.7002 21.3866 12.3866 21.7002 12 21.7002C11.6134 21.7002 11.2998 21.3866 11.2998 21Z" fill="black"/>
<path d="M19.0049 11.2948L21.0049 11.2948C21.3915 11.2948 21.7051 11.6084 21.7051 11.995C21.7051 12.3816 21.3915 12.6952 21.0049 12.6952L19.0049 12.6952C18.6183 12.6952 18.3047 12.3816 18.3047 11.995C18.3047 11.6084 18.6183 11.2948 19.0049 11.2948Z" fill="black"/>
<path d="M3.00488 11.2948L5.00488 11.2948C5.39148 11.2948 5.70508 11.6084 5.70508 11.995C5.70508 12.3816 5.39148 12.6952 5.00488 12.6952L3.00488 12.6952C2.61828 12.6952 2.30469 12.3816 2.30469 11.995C2.30469 11.6084 2.61828 11.2948 3.00488 11.2948Z" fill="black"/>
</svg>
