<svg width="32" height="32" viewBox="0 0 32 32" fill="none" xmlns="http://www.w3.org/2000/svg">
<path d="M6 16C6 17.3132 6.25866 18.6136 6.7612 19.8268C7.26375 21.0401 8.00035 22.1425 8.92893 23.0711C9.85752 23.9997 10.9599 24.7363 12.1732 25.2388C13.3864 25.7413 14.6868 26 16 26C17.3132 26 18.6136 25.7413 19.8268 25.2388C21.0401 24.7363 22.1425 23.9997 23.0711 23.0711C23.9997 22.1425 24.7363 21.0401 25.2388 19.8268C25.7413 18.6136 26 17.3132 26 16C26 14.6868 25.7413 13.3864 25.2388 12.1732C24.7363 10.9599 23.9997 9.85752 23.0711 8.92893C22.1425 8.00035 21.0401 7.26375 19.8268 6.7612C18.6136 6.25866 17.3132 6 16 6C14.6868 6 13.3864 6.25866 12.1732 6.7612C10.9599 7.26375 9.85752 8.00035 8.92893 8.92893C8.00035 9.85752 7.26375 10.9599 6.7612 12.1732C6.25866 13.3864 6 14.6868 6 16Z" stroke="#101010" stroke-width="2" stroke-linecap="round" stroke-linejoin="round"/>
<path d="M12.6665 13.7777C12.6665 14.6617 13.0177 15.5096 13.6428 16.1347C14.2679 16.7598 15.1158 17.111 15.9998 17.111C16.8839 17.111 17.7317 16.7598 18.3569 16.1347C18.982 15.5096 19.3332 14.6617 19.3332 13.7777C19.3332 12.8936 18.982 12.0458 18.3569 11.4206C17.7317 10.7955 16.8839 10.4443 15.9998 10.4443C15.1158 10.4443 14.2679 10.7955 13.6428 11.4206C13.0177 12.0458 12.6665 12.8936 12.6665 13.7777Z" stroke="#101010" stroke-width="2" stroke-linecap="round" stroke-linejoin="round"/>
<path d="M9.3335 22.6619C9.61638 22.0207 10.1952 21.4587 10.9842 21.0592C11.7731 20.6598 12.7301 20.4441 13.7132 20.4443H18.2849C19.2692 20.4441 20.2274 20.6603 21.0169 21.0606C21.8064 21.461 22.3851 22.0242 22.6668 22.6666" stroke="#101010" stroke-width="2" stroke-linecap="round" stroke-linejoin="round"/>
</svg>
