<svg viewBox="0 0 24 24" fill="none" xmlns="http://www.w3.org/2000/svg">
<g clip-path="url(#clip0_886_14194)">
<rect x="2" y="2" width="20" height="20" rx="10" fill="#FF5532"/>
<path d="M16 9C16 11.2091 14.2091 13 12 13C9.79086 13 8 11.2091 8 9C8 6.79086 9.79086 5 12 5C14.2091 5 16 6.79086 16 9Z" fill="white" fill-opacity="0.6"/>
<path d="M3 21.5C3 17.9101 5.91015 15 9.5 15H14.5C18.0899 15 21 17.9101 21 21.5C21 25.0899 18.0899 28 14.5 28H9.5C5.91015 28 3 25.0899 3 21.5Z" fill="white" fill-opacity="0.6"/>
</g>
<defs>
<clipPath id="clip0_886_14194">
<rect x="2" y="2" width="20" height="20" rx="10" fill="white"/>
</clipPath>
</defs>
</svg>
